<svg width="1600" height="1000" viewBox="0 0 1600 1000" fill="none" xmlns="http://www.w3.org/2000/svg">
  <defs>
    <linearGradient id="bg" x1="160" y1="120" x2="1460" y2="940" gradientUnits="userSpaceOnUse">
      <stop offset="0" stop-color="#111214"/>
      <stop offset="0.52" stop-color="#090A0B"/>
      <stop offset="1" stop-color="#040405"/>
    </linearGradient>
    <radialGradient id="halo" cx="0" cy="0" r="1" gradientUnits="userSpaceOnUse" gradientTransform="translate(1200 280) rotate(148) scale(520 420)">
      <stop stop-color="#E8E5DD" stop-opacity="0.24"/>
      <stop offset="1" stop-color="#E8E5DD" stop-opacity="0"/>
    </radialGradient>
    <linearGradient id="ink" x1="972" y1="132" x2="1378" y2="864" gradientUnits="userSpaceOnUse">
      <stop stop-color="#1C1E20"/>
      <stop offset="1" stop-color="#090A0B"/>
    </linearGradient>
    <linearGradient id="spine" x1="962" y1="852" x2="1410" y2="852" gradientUnits="userSpaceOnUse">
      <stop stop-color="#E5E0D2" stop-opacity="0.7"/>
      <stop offset="1" stop-color="#8F897D" stop-opacity="0.08"/>
    </linearGradient>
    <filter id="soft" x="760" y="20" width="820" height="920" filterUnits="userSpaceOnUse" color-interpolation-filters="sRGB">
      <feGaussianBlur stdDeviation="20"/>
    </filter>
  </defs>

  <rect width="1600" height="1000" fill="url(#bg)"/>
  <rect width="1600" height="1000" fill="url(#halo)"/>

  <g opacity="0.42" filter="url(#soft)">
    <rect x="910" y="96" width="530" height="790" rx="26" fill="#141618"/>
  </g>

  <g>
    <rect x="936" y="116" width="494" height="762" rx="20" fill="url(#ink)"/>
    <rect x="936" y="116" width="494" height="762" rx="20" stroke="#E9E5D7" stroke-opacity="0.22"/>
    <rect x="936" y="140" width="494" height="1" fill="#E9E5D7" fill-opacity="0.18"/>
    <rect x="962" y="168" width="22" height="670" rx="11" fill="url(#spine)"/>
    <rect x="998" y="168" width="28" height="670" rx="14" fill="#EFE8D4" fill-opacity="0.23"/>
    <rect x="1038" y="168" width="17" height="670" rx="8.5" fill="#D9D2BD" fill-opacity="0.35"/>
    <rect x="1066" y="168" width="44" height="670" rx="22" fill="#E8E0C9" fill-opacity="0.16"/>
    <rect x="1122" y="168" width="14" height="670" rx="7" fill="#DED7C2" fill-opacity="0.34"/>
    <rect x="1148" y="168" width="26" height="670" rx="13" fill="#EEE6D0" fill-opacity="0.2"/>
    <rect x="1188" y="168" width="20" height="670" rx="10" fill="#E8E1CE" fill-opacity="0.32"/>
    <rect x="1218" y="168" width="34" height="670" rx="17" fill="#F2EBD8" fill-opacity="0.14"/>
    <rect x="1266" y="168" width="15" height="670" rx="7.5" fill="#E9E2CF" fill-opacity="0.3"/>
    <rect x="1292" y="168" width="31" height="670" rx="15.5" fill="#EFE9D6" fill-opacity="0.18"/>
    <rect x="1338" y="168" width="18" height="670" rx="9" fill="#E6DECA" fill-opacity="0.28"/>
    <rect x="1370" y="168" width="12" height="670" rx="6" fill="#F2ECD8" fill-opacity="0.24"/>
  </g>

  <g opacity="0.72" stroke="#EEE7D4" stroke-linecap="round">
    <path d="M758 778C832 742 872 686 898 620" stroke-opacity="0.25" stroke-width="2"/>
    <path d="M778 746C842 726 884 694 908 652" stroke-opacity="0.22" stroke-width="1.8"/>
    <path d="M806 702C844 692 864 676 876 648" stroke-opacity="0.28" stroke-width="1.6"/>
    <circle cx="834" cy="716" r="3" fill="#EDE5D2" fill-opacity="0.42" stroke="none"/>
    <circle cx="862" cy="684" r="2.5" fill="#EDE5D2" fill-opacity="0.4" stroke="none"/>
    <circle cx="890" cy="646" r="2" fill="#EDE5D2" fill-opacity="0.35" stroke="none"/>
  </g>

  <g opacity="0.75">
    <path d="M692 832C750 804 828 802 884 828" stroke="#EFE7D2" stroke-opacity="0.32" stroke-width="3" stroke-linecap="round"/>
    <path d="M692 832C732 816 768 818 804 832" stroke="#EFE7D2" stroke-opacity="0.52" stroke-width="3" stroke-linecap="round"/>
    <path d="M804 832C838 818 850 818 884 832" stroke="#EFE7D2" stroke-opacity="0.42" stroke-width="3" stroke-linecap="round"/>
  </g>

  <rect width="1600" height="1000" fill="url(#bg)" fill-opacity="0.12"/>
</svg>
